<svg xmlns="http://www.w3.org/2000/svg" width="451.6" height="791.6">
  <g fill="#8a0">
    <path d="M325.4 163.2s-2.8-8.5-17.2-13.4c-14.4-5-16-4.6-16-4.6s19.8 8.8 33.2 18zm-.8 1.6s-17.8-7-25.8-3.5l-11 5s25 1.5 36.8-1.5z"/>
    <path d="M325.7 166s-16.8-.6-16.8 10.7v12s10-9.7 16-22.7zm.6-.5s-5 10.4 1.4 19.2c6.2 8.7 9 11.3 9 11.3s-1.2-20.6-10.4-30.5z"/>
    <path d="M303.6 319c-6-2.8 2.6-13.4 5.2-27.7 2-11 12.2-103.8 12.3-113 0-2.6 2-1.2 4 4.2 4 8.2 11 17 13 17s0-12-3-21.7c-1-3.7-1-7.2-1-7.8 1-.5 6-.4 12 .3l11 1.4v15.5c-1 34-16 127-18 131-1 5.6-27-2-34 1zm21.7-159.2c-1.5-3.3-1.3-6.4 1-11.8 1.6-4 2.5-8.8 2-10.8-1.2-3.5 6.3-101.3 8-102.8 1.4-1.6 12.4 7.5 19.8 16.5l8 8-2 25c-1 13-2 33-2 44 0 10-1 23-1 27l-1 8h-15c-13 0-15 0-16-4zM310 180.3c.2-5.5.2-6 .8-7 1.2-2.6 4-4.5 8.2-5.5 2.3-.5 4.7-1 4.7-.7 0 1-4 8-6.8 11-2 3-6 7-7 8l-1 1v-6z"/>
    <path d="M334 191.3c-2.7-3.4-6-8-6.7-9.4l-1.3-4v-9l1-2c0-1 .4 0 1.2 1 2.3 3 4.3 8 5.7 14 0 3 2 9 1 9l-2-1zm-39.2-25.8h-2.3l3.7-1.8c2-1 4.3-2 5-2 2-.4 7.6 0 10.6.5 3 .6 8.3 2 8.3 2.3 0 .2-5 .7-10 1-4 .2-11 .3-15 0zm23.7-8c-3-2-6.6-3.7-11-6-1.7-1-3-1.7-2.8-1.7.5 0 5.4 1.8 7.5 2.8 2.8 1.3 6 3.4 7.8 5 1 1 1.4 1.6 1.3 1.6l-2.8-1.6zm-30 310.5c-1.5-.2-4.5-.8-6.4-1.3l-3-.8v-10l2-8c4-32 7-50 16-94 5-28 6-32 7-32 1-1 2-1 6-1 3 0 9 0 14 1 6 0 11 1 13 1h2v4c0 2-1 7-1 10l-9.4 46c-2.6 17-13 82-13.3 82-2.3 2-16 3-22 2zm-15.8 144.2l-7.4-.8.6-1.6c2-6.6 1-16-3-23.7l-2-2v-4l1-5 1 3 1 3s2-4 4-9c4-11 5-14 3-18l-1-3 4 2c4 2 18 8 20 9 1 1 1 1 1 3-5 42-6 49-7 50-2 2-8 3-18 2zm-4.5-84.4c0-1 6.5-51 6.8-52.5.2-.6 1-1.5 2-2 2.6-1.4 16.2-1 25.6 1l3 .6-4.8 5c-5.6 6-9 10-13.2 16-4 5-8.8 13-8.8 14s19-9 25.4-13l2.4-2-.3 3-2 15-1.5 12-4.3-1H284c-8 0-10 0-12.2 1-3.2 1-3 1-3 0zm27 20.2c-3.2-3.4-4.7-4.6-7.6-6-4-2-9.7-3.4-16-4.3-3.6-.4-4.4-.7-4.4-1.4 0-1 1.6-1.3 16-3 12.5-1.5 18.8-1.8 18.8-1 0 1-2.5 19.8-2.6 20l-4.2-4.2zm26.3-36.3c-.6-1.3-1-28-.5-33.8l.3-5 2.8 3c4 4 7 9 7 13 1 4-1 7-5 16-2 5-3 6-4 5zm33.3-16l-7.8-6c-7-5-14.7-11.6-18.2-15.3l-2.3-2.4 2 .4c3.3.6 11.4 3.8 15 6 3.8 2.2 5.4 3.5 7.2 6 1.4 2 6.5 12.5 6 12.5-.2 0-1-1-2-2zm-26-32.3c0-.4 5.8-2.3 8.8-3 4-.7 10.2-.2 16.4 1.3l4.7 1-13 .2h-17z"/>
    <path d="M287.8 502c1-2 7.4-10.5 10.6-14.3 5.4-6.5 14.8-15 16.5-15 1 0-2 8.2-5 13-3 4.2-5 6.4-8 8.6-3 2-14 8.7-15 8.7s0-.4 0-1zm-57.5 65.3c0-.2 1.7-3 3.7-6 5.7-8.4 12.5-15.8 17.6-19.2h1.4c0 2-1.6 8-3 10-2 5-6 8-13 12-6.2 4-6.7 4-6.7 4zm-1.3-26c-6.7-.3-7-.6-7.5-7l-.8-8.6-3-38.8-2.7-35 2.6-6c2.4-5 3.4-8 4.3-12v-1h26l3 48 3 50v3l-3 1-5 3c-1 1-2 1-8 1h-12z"/>
    <path d="M230 650c-.2 0-1-1.2-1.4-2.2-.6-1-1.6-2.3-2.4-2.7H225l-1-8c-1.4-35-3-87-2.7-88 .7-1 3.5-2 12.3-2h8.5l-1 2-2 2c-1 1-6 8-9 12-2 4-7 13-7 14s11-4 17-8c8-5 12-9 15-16 1-2 1-3 2-2 1 3 2 25 3 76 0 10 1 19 1 21l1 4-2 1c-2 1-3 1-14 2-7 0-12.3 0-12.5-.3zm34.3-81.7c-1.8-5.4-3.6-13-4.4-17.7-1-6-2-9.2-1-9.2 0 0 7 4.4 8 6 4 5 5 8.6 1 17.4-3 7.6-3 7.4-4 3.5zm24.3-16.6c-8-3.2-24.7-11.3-24.3-11.7.4-.4 9 1 13.7 2 5.3 1.2 10 3.2 12.2 5.2 2.4 2.2 7 7.3 6.7 7.5-1 0-4-1.3-9-3zm-20.4-20c3-2 15.7-3.5 20.2-2.6l2.3 1-4 1c-2.3 0-6.7 1-10 1-3 1-6.6 1-7.8 1-2 1-2 1-1 0z"/>
    <path d="M263.6 753l-.8-29.3c-.4-15.4-1-36.8-1-47.5 0-10.7-.3-20.2-.5-21.2-.4-1.7-.6-1.8-3-2l-2.3-.3 2.4-1c4.5-1.5 4.2-.5 3.7-14 0-11.5 0-12.5 1-15.8 1-4 1-4 3-4s17 1 21 1h4v4c0 2-1 9-2 14-2 11-1 8-9 66-3 27-6 46-6 46-1 1-3 2-5 2s-2 0-2-2z"/>
    <path d="M231.6 757.2c-4.6-1-5.2-1.3-5.6-2.6-.5-2-1.2-30-1.5-65.3l-.4-32.6 2-.4c1-.2 2 0 2 .3 1 .4 1 .4 1 0 0-1 30-.8 30 0 1 .4 1 9 1 19 0 10.3 1 31 1 46 1 37 1 33.7-1 34.8-1 .8-3 1-14 1-6 0-13 0-13-.2zm-8-107c-4-2.5-19-9.6-36.5-17-18-8-24-10.4-23-10.4s25 9 32 12c10 4.4 29 13.2 30 14 1 .3 1 1.2 1 2v1l-2-1.4zm-4.4-22.7c1.6-1.7 1.8-1.8 2-.8 0 1.4-.3 2-2.3 2.3l-2 .4 2-2zm43-27c-1.2-3.5-1.6-5-1.6-8V589l1 2c1.4 2.5 2.6 8 2.5 11v2.7l-1-4.3zm0 10.5c-.4-.2-1.2-1.3-1.3-1.6l-1-2v-2 1.6l1 4c0 .2 0 .2-1 0zM219 593.7l-1.3-.7h2.5v1.4l-1.2-.7zm-14.4-133v-12l.3-1.3c0-2.2 2-5 4-7.5 1-2 4-5 5-6l4-4v1c-1 6-4 14-10 23l-4 6c-1 0-1-1-1-2zM179 445c.2-.3 2-2.5 4.2-4.8 4.2-4.5 5.5-6 6.8-6.8 3.6-2.5 7.8-4 13.4-4.6 2-.2 7-.2 9.4 0 3 .4 3.2.2-.8 2.2-8 4.3-17 8.3-26.8 12-3.3 1.4-6.6 2.6-6.8 2.6 0 0 0-.3.5-.6zm34.2-19.6c-8.5-.8-18.5-2.7-30.7-5.6l-7.6-2c1 0 4-.5 8-1 7-.7 9-.6 14 .5 5 1.2 10 4 16 7.6 1 1 1 1-1 0zm7.5-3.6c0-.3-.6-1-1-1.6-3.5-4.8-7.8-10-14.5-17l-1.6-1.7c.3 0 8.3 5.4 9.7 6.6l2.4 2c3.3 4 5 7 5.3 11v2h-.3zm-1 4l-2.4-1.6c-1-.7-1.3-1-1.7-1.6-.8-1.3-1.5-3.5-1.7-5-1-1-1-1 1 1.8l5 7.4-1-1zm4.3-4.3c0-4.3-2-9-5-12.6-4-5-5-10-7-35-1.2-16-2.3-34-2.3-41 0-14 .7-15 21.4-15h13l3 39c4 62 4 66 0 68-2 1-7 2-13 2-9 0-9 0-9-7zm-16.3-107c0-.8 1.4-4.2 3.2-7.5 2-5 3-13.8 2-49.4 0-23.8 0-43.3 1-43.3s7 4 14 8.6l13 8v82h-9c-5 0-13 0-18 1h-9zm-77 353.2c0-.6 1-4 2-8 2.5-11.7 5.7-21.6 8.5-26.5 1-2 2.4-3.3 4.6-4.7 4.7-3 12-5.5 12-4 0 .2-1 3.6-2.5 7.4-3 8-7.2 16-10.6 21-2.7 4-14.4 16-14 14zM88.3 653c0-.4 14.4-12 17.4-14 5-3.3 13.5-7.4 21.7-10.6 7.3-3 18-6.5 19.4-6.5 2.2 0-18.8 11-41.2 23-16 8-17.3 8-17.3 8zm14.5-36.5c1.3-.5 5.4-1.6 8.6-2.4 6-1 8.8-2 12.4-2h12c3.2 0 7.6 1 10.8 2 1 1 1 1-1 1-7.4 0-22.8 2-38.2 3-2.6 0-4.7 1-4.8 1h.2zm105.5 5.8c-7.7-.5-19.3-2-26.8-3.2l-6.2-1h-1 16s9 1 13 2l12.4 3c.7 1-2.8 1-7.4 0zm-38-28.3c0-1.8 7.7-36 8-36.7.4-.2 1 5.6 1.4 9.8.5 8-.6 12-4.4 20-2 4-5 9-5 8zm-8.6 7.6c-2.2-2.5-9-9.7-13.6-14.4l-4-4c1 0 3 1.4 5 3.2 5 4 10 8.3 12 11.5 2 2 3 5 3 5l-1-2z"/>
  </g>
</svg>
