<svg xmlns="http://www.w3.org/2000/svg"  viewBox="0 0 411.508 377.918">
  <path fill="#FFF" stroke="#000" stroke-width="5" stroke-miterlimit="10" d="M113.452 57.734c84.722-2.778 230.556-29.167 255.556 70.833s30.556 140.278 18.056 166.667-55.556 88.889-212.5 79.167c-156.944-9.722-168.056-125-168.056-125l2.843-42.638c0-.001 19.379-146.251 104.101-149.029z"/>
  <path stroke="#000" stroke-width="5" stroke-miterlimit="10" d="M37.125 143.236S-24.406 49.087 23.522 14.339s83.487 15.72 83.487 39.713m270.128 103.184s61.531-94.149 13.603-128.897-83.487 15.72-83.487 39.713"/>
  <path fill="#FFF" stroke="#000" stroke-width="5" stroke-miterlimit="10" d="M109.452 55.734c84.722-2.778 230.556-29.167 255.556 70.833s30.556 140.278 18.056 166.667-55.556 88.889-212.5 79.167c-156.944-9.722-168.056-125-168.056-125l2.843-42.638c0-.001 19.379-146.251 104.101-149.029z"/>
  <path stroke="#000" stroke-width="5" stroke-miterlimit="10" d="M100.205 180.015c-.458 1.247 20.567-44.955 44.593-27.388 19.502 14.259 20.914 10.818 20.156 35.684-.753 24.684 1.444 22.78-11.896 36.251-13.131 13.259-8.208 8.93-16.642 14.147-6.164 3.813-15.221.412-22.918-3.799-7.334-4.012-9.446-8.895-11.78-15.184-7.981-21.506-.315-42.974-1.513-39.711zm198.373 3.941c.49 1.197-21.774-43.201-45.839-26.923-19.534 13.213-21.035 9.909-19.778 33.605 1.248 23.523-1.021 21.668 12.795 34.748 13.6 12.875 8.514 8.659 17.184 13.787 6.337 3.747 15.471.679 23.209-3.187 7.372-3.683 9.422-8.293 11.67-14.239 7.687-20.331-.522-40.921.759-37.791z"/>
  <path d="M205.361 305.039c-21.342.164-40.845-18.893-37.462-29.169 3.95-11.994 38.894-11.458 41.784-11.414 8.932.137 29.561.453 33.139 8.878 4.204 9.896-14.887 31.532-37.461 31.705z"/>
  <path fill="none" stroke="#000" stroke-width="8" stroke-linecap="round" stroke-miterlimit="10" d="M208.063 296.755l-4.55 24.784"/>
  <path fill="#161515" stroke="#000" stroke-width=".75" stroke-miterlimit="10" d="M147.149 331.095c14.604 2.171 21.897-.121 42.222-1.215 14.384-.774 12.946.254 37.884-.536 1.801-.057 9.012-.291 18.61-.257 11.58.041 18.354.064 18.431.633.163 1.215-29.997 6.966-64.421 6.255-34.037-.703-62.024-7.514-62.28-6.983-.101.207 4.157 1.301 9.554 2.103z"/>
</svg>
