<?xml version="1.0" encoding="UTF-8" standalone="no"?>
<!-- Generator: Adobe Illustrator 17.0.0, SVG Export Plug-In . SVG Version: 6.00 Build 0)  -->

<svg
   xmlns:osb="http://www.openswatchbook.org/uri/2009/osb"
   xmlns:dc="http://purl.org/dc/elements/1.1/"
   xmlns:cc="http://creativecommons.org/ns#"
   xmlns:rdf="http://www.w3.org/1999/02/22-rdf-syntax-ns#"
   xmlns:svg="http://www.w3.org/2000/svg"
   xmlns="http://www.w3.org/2000/svg"
   xmlns:sodipodi="http://sodipodi.sourceforge.net/DTD/sodipodi-0.dtd"
   xmlns:inkscape="http://www.inkscape.org/namespaces/inkscape"
   version="1.1"
   id="Layer_1"
   x="0px"
   y="0px"
   
   viewBox="311.655 52.909 414.48143 460.28156"
   enable-background="new 311.655 52.909 337.803 507.339"
   xml:space="preserve"
   inkscape:version="0.91 r13725"
   sodipodi:docname="panda.svg"><metadata
     id="metadata114"><rdf:RDF><cc:Work
         rdf:about=""><dc:format>image/svg+xml</dc:format><dc:type
           rdf:resource="http://purl.org/dc/dcmitype/StillImage" /><dc:title></dc:title></cc:Work></rdf:RDF></metadata><defs
     id="defs112"><linearGradient
       id="linearGradient4549"
       osb:paint="solid"><stop
         style="stop-color:#000000;stop-opacity:1;"
         offset="0"
         id="stop4551" /></linearGradient></defs><sodipodi:namedview
     pagecolor="#ffffff"
     bordercolor="#666666"
     borderopacity="1"
     objecttolerance="10"
     gridtolerance="10"
     guidetolerance="10"
     inkscape:pageopacity="0"
     inkscape:pageshadow="2"
     inkscape:window-width="1280"
     inkscape:window-height="657"
     id="namedview110"
     showgrid="false"
     showborder="false"
     fit-margin-top="0"
     fit-margin-left="0"
     fit-margin-right="0"
     fit-margin-bottom="0"
     inkscape:zoom="1"
     inkscape:cx="281.43386"
     inkscape:cy="237.85814"
     inkscape:window-x="-8"
     inkscape:window-y="-8"
     inkscape:window-maximized="1"
     inkscape:current-layer="Layer_1" /><path
     id="path6"
     d="m 312.57052,251.60624 c 0.0495,-0.81743 0.0856,-1.53929 0.0914,-2.12271 10e-4,-0.18293 0.0157,-0.35845 0.0363,-0.52902 -0.34444,-0.30737 -0.69137,-0.60649 -1.04322,-0.89325 0.19448,0.33537 0.34939,0.71525 0.44745,1.15117 0.17964,0.79519 0.33043,1.59368 0.46806,2.39381 z"
     inkscape:connector-curvature="0"
     style="fill:#edece8" /><path
     style="fill:#000000;fill-opacity:0;stroke:none"
     inkscape:connector-curvature="0"
     d="m 659.60625,355.01711 c 4.45721,12.15698 6.25772,9.91314 12.01773,35.38735 3.96277,17.52474 4.032,36.6786 1.93895,54.52967 -1.02428,8.74053 -2.94264,17.38301 -7.32403,24.81251 -4.15149,7.0389 -9.6824,13.03376 -15.3361,18.54902 -10.56001,10.30207 -23.04413,25.97275 -38.42886,24.8364 -13.26778,-0.9806 -23.29958,-16.29364 -21.35074,-30.6953 2.13508,-15.77613 16.03736,-21.18263 23.08451,-33.31407 6.27749,-10.80639 3.53346,-20.60581 4.48357,-31.77806 0.8949,-10.52211 10.14222,-20.07431 16.06702,-28.18941 8.25601,-11.3074 16.04809,-24.59825 25.77087,-34.38367"
     id="path43" /><ellipse
     style="opacity:1;fill:#edece8;fill-opacity:1;stroke:#000000;stroke-width:2.30459142;stroke-linejoin:round;stroke-miterlimit:7.5999999;stroke-dasharray:none;stroke-dashoffset:0;stroke-opacity:1"
     id="path4663"
     cx="563.37854"
     cy="324.90591"
     rx="118.97345"
     ry="150.08275" /><path
     style="fill:#232323;stroke:none;stroke-width:2.5;stroke-miterlimit:7.5999999;stroke-dasharray:none;stroke-opacity:1"
     inkscape:connector-curvature="0"
     d="m 565.89717,152.4536 c 0.37292,0.18944 19.16059,9.25258 19.53353,9.442 0.74587,0.37883 1.49258,0.7574 2.2379,1.13748 1.99511,1.01482 3.98757,2.03274 5.97214,3.05765 8.89288,4.59228 20.12798,14.91903 28.27972,20.21752 11.15533,7.70819 18.74446,13.24372 26.52167,23.45438 8.39489,9.98109 11.56104,16.19355 18.88504,27.19671 15.9222,24.02732 18.37752,41.903 24.12521,70.95927 16.30679,31.40836 15.02445,74.13342 6.6057,107.48609 -4.79135,18.98242 -19.60145,39.04205 -33.04373,51.34963 -6.52937,5.97868 -16.69015,10.76806 -24.61774,14.28857 -4.69818,2.08611 -9.74769,3.86575 -14.60461,5.4268 -10.93001,3.51436 -21.36711,-6.82658 -25.31394,-17.7603 -5.45585,-15.11412 8.01556,-21.23545 16.18135,-30.94181 3.85328,-4.58122 8.26178,-9.19605 11.24533,-14.60159 2.78619,-5.04947 3.59687,-10.79407 5.16299,-16.49961 3.0307,-11.03816 7.74916,-21.6331 10.98567,-32.2038 2.56439,-8.37456 5.77557,-15.84706 9.1868,-23.73429 3.12871,-7.23418 8.63348,-11.19674 6.31238,-19.143 -9.84447,-33.70219 -21.78372,-67.84863 -33.17887,-100.72683 -6.10051,-17.6014 -3.74088,-19.92825 -13.24038,-34.46109 -4.17375,-6.38489 -41.04407,-46.69397 -47.16223,-44.49154"
     id="path27-7"
     sodipodi:nodetypes="csccccccscccsccccssscc" /><path
     style="fill:#232323;stroke:none;stroke-width:2.5;stroke-miterlimit:7.5999999;stroke-dasharray:none;stroke-opacity:1"
     inkscape:connector-curvature="0"
     d="m 548.97212,148.25625 c -0.40505,0.258 -20.89783,12.78033 -21.30291,13.03833 -0.81011,0.51601 -1.62128,1.03189 -2.43056,1.54901 -2.16675,1.38171 -4.32976,2.76593 -6.4823,4.15566 -9.64545,6.22691 -19.08577,12.56878 -27.7311,19.35584 -11.74838,9.7411 -24.54447,20.29236 -31.86342,31.87665 -8.08774,11.47327 -14.72911,23.7577 -21.37148,36.04195 -14.42106,26.81144 -26.25581,53.0349 -27.78799,82.91225 -1.90949,37.22249 14.79009,65.09248 30.71607,96.5575 9.064,17.9081 30.12126,34.99542 48.17046,44.65843 8.76718,4.69413 21.59672,7.52526 31.56756,9.51987 5.90903,1.18178 12.17659,1.99369 18.17795,2.62525 13.50566,1.42265 23.93366,-10.79211 26.61124,-22.37105 3.70132,-16.00602 -13.26724,-19.53312 -24.63349,-27.61287 -5.36368,-3.81365 -21.9695,-8.68519 -26.45752,-13.47966 -4.19136,-4.47876 -21.46684,-19.05283 -24.3396,-24.41171 -11.95733,-17.85649 0,0 -22.93683,-41.46803 -4.98853,-6.57924 -0.62324,-13.24552 0.67817,-21.55756 5.51961,-35.25351 25.066,-72.14055 32.56037,-106.86978 4.01223,-18.59235 12.39165,-28.82098 20.95993,-45.01311 3.76467,-7.11391 20.10736,-41.06532 27.70966,-40.03586"
     id="path27"
     sodipodi:nodetypes="ccccccccscccsccccsscc" /><path
     id="path8"
     d="m 461.37558,357.73272 c -0.2623,1.05195 102.94097,-81.8092 196.11151,-12.69468"
     stroke-miterlimit="10"
     inkscape:connector-curvature="0"
     style="fill:none;stroke:#000000;stroke-width:1.6931088;stroke-miterlimit:10" /><path
     id="path12"
     d="m 509.18803,127.74562 c 0,0 -44.23139,-43.64578 -19.48301,-64.481444 24.74837,-20.835629 49.95785,2.3878 52.11121,14.55974"
     stroke-miterlimit="10"
     inkscape:connector-curvature="0"
     style="fill:#232323;fill-opacity:1;stroke:none;stroke-width:2.5;stroke-miterlimit:7.5999999;stroke-dasharray:none;stroke-opacity:1" /><path
     id="path14"
     d="m 610.65918,132.89507 c 0,0 51.92787,-29.02531 37.89506,-56.989914 -14.0328,-27.964608 -43.07903,-13.034888 -48.94257,-1.807642"
     stroke-miterlimit="10"
     inkscape:connector-curvature="0"
     style="fill:#232323;fill-opacity:1;stroke:none;stroke-width:2.5;stroke-miterlimit:7.5999999;stroke-dasharray:none;stroke-opacity:1" /><path
     id="path16"
     d="m 539.72773,72.229832 c 31.91314,-0.183085 87.11061,-9.208558 95.2922,31.378718 8.18156,40.5873 9.77776,56.8848 4.75157,67.38362 -5.02617,10.49884 -21.99373,35.2174 -80.92999,29.56321 -30.48991,-2.92488 -45.9466,-16.8069 -53.76483,-29.52546 -0.29483,-0.48019 -0.57958,-0.95849 -0.85343,-1.43481 -0.26987,-0.46891 -0.52887,-0.9351 -0.77864,-1.39856 -5.76242,-10.70625 -6.30781,-19.88763 -6.30781,-19.88763 l 1.59237,-17.15663 c 8.1e-4,8.5e-4 9.08542,-58.739337 40.99856,-58.922458 z"
     stroke-miterlimit="10"
     inkscape:connector-curvature="0"
     style="fill:#edece8;stroke:#2a2a2a;stroke-width:2.76933074;stroke-miterlimit:7.5999999;stroke-dasharray:none;stroke-opacity:1;fill-opacity:1" /><line
     style="fill:#232323;fill-opacity:1;stroke:#000000;stroke-width:4.77264977;stroke-linecap:round;stroke-miterlimit:10"
     id="XMLID_6_-6-8"
     stroke-miterlimit="10"
     x1="568.4541"
     y1="161.68437"
     x2="567.01331"
     y2="168.99379" /><path
     id="path18"
     d="m 526.70549,114.66044 c -0.26832,0.63946 11.82334,-22.995271 24.33761,-13.58088 10.15884,7.64109 10.97614,5.87938 10.11194,18.74032 -0.85849,12.76728 0.35037,11.81056 -7.02778,18.60564 -7.26297,6.68851 -4.55211,4.51246 -9.15524,7.1008 -3.36406,1.89188 -8.14153,0.009 -12.17785,-2.27321 -3.84499,-2.17534 -4.88406,-4.73071 -6.01436,-8.01686 -3.8672,-11.23984 0.62606,-22.24873 -0.0744,-20.57581 z"
     stroke-miterlimit="10"
     inkscape:connector-curvature="0"
     style="fill:#232323;fill-opacity:1;stroke:none;stroke-width:4.12017298;stroke-miterlimit:10" /><path
     id="path20"
     d="m 613.21512,115.15501 c 0.23979,0.62731 -10.8354,-22.697307 -23.99407,-14.5772 -10.68116,6.59079 -11.42145,4.85762 -11.1886,17.16443 0.23128,12.21695 -0.94605,11.22467 6.19426,18.19314 7.02801,6.86021 4.38852,4.60538 8.92608,7.38082 3.31676,2.02849 8.2535,0.55873 12.45853,-1.34185 4.00675,-1.81157 5.18759,-4.17534 6.49838,-7.2292 4.48443,-10.44264 0.47914,-21.23066 1.10542,-19.59014 z"
     stroke-miterlimit="10"
     inkscape:connector-curvature="0"
     style="fill:#232323;fill-opacity:1;stroke:none;stroke-width:4.12017298;stroke-miterlimit:10" /><path
     d="m 567.27457,162.99988 c -9.51922,-0.19138 -17.92132,-9.89009 -16.25448,-14.94233 1.94588,-5.89674 17.51923,-5.18316 18.80718,-5.12422 3.98065,0.18211 13.17402,0.60279 14.64012,4.82556 1.72188,4.96085 -7.12448,15.44417 -17.19282,15.24099 z"
     id="XMLID_8_"
     inkscape:connector-curvature="0"
     style="fill:#232323;fill-opacity:1;stroke:none" /><line
     y2="179.66692"
     x2="564.21704"
     y1="167.43657"
     x1="566.62775"
     stroke-miterlimit="10"
     id="XMLID_6_"
     style="fill:none;stroke:none;stroke-width:6.59227753;stroke-linecap:round;stroke-miterlimit:10" /><path
     d="m 540.14213,176.04761 c 6.62667,3.61338 10.02484,0.59229 19.3535,-0.26308 12.88876,-1.1812 25.77781,3.21472 38.53927,-2.43535 -2.20983,5.77326 -9.86714,8.24652 -13.86967,9.87376 -6.29912,2.56093 -13.6209,2.54171 -20.01886,1.64047 -15.55975,-2.19383 -28.19056,-12.9057 -28.32138,-12.15568 -0.0521,0.29176 1.86771,2.00541 4.31714,3.33988 z"
     stroke-miterlimit="10"
     id="XMLID_18_"
     inkscape:connector-curvature="0"
     style="fill:#232323;fill-opacity:1;stroke:none;stroke-width:0.61802602;stroke-miterlimit:10" /><path
     id="path67"
     d="m 544.8977,125.40501 c 3.86196,0.1109 4.0482,-5.87333 0.18622,-5.98419 -3.86195,-0.11078 -4.0482,5.87332 -0.18622,5.98419 l 0,0 z"
     inkscape:connector-curvature="0"
     style="fill:#ffffff;stroke:none" /><path
     id="path73"
     d="m 591.63498,129.77048 c 3.86196,0.11089 4.0482,-5.87336 0.18623,-5.98423 -3.86196,-0.11078 -4.04821,5.87336 -0.18623,5.98423 l 0,0 z"
     inkscape:connector-curvature="0"
     style="fill:#ffffff;stroke:none" /><path
     style="fill:#4c4136"
     inkscape:connector-curvature="0"
     d="m 607.86628,454.53011 c 1.76252,-1.57152 3.39878,-3.14303 5.41296,-4.47358 2.01419,-1.20931 4.28004,-2.05494 6.67133,-2.53911 5.03506,-0.84637 10.44802,0.12121 15.10596,2.17618 4.40548,1.81322 7.80424,4.95698 10.07011,8.94636 2.39207,4.11063 3.90213,8.9464 4.02835,13.66167 0.12621,2.05493 -0.1262,4.23111 -1.13292,6.04507 -0.75503,1.69274 -2.13963,3.14303 -3.77668,4.23111 -3.65047,2.29739 -8.43385,3.38547 -12.71386,3.8689 -3.90215,0.60466 -8.05673,0.60466 -11.70718,-0.96685 -3.77668,-1.69274 -6.79756,-4.71527 -9.44133,-7.85829 -2.64374,-3.26425 -5.28671,-7.13317 -5.79006,-11.36426 -0.3779,-4.59405 2.13963,-8.70467 4.78337,-12.33187 0.75503,-1.08809 1.63628,-2.05493 2.39208,-3.02253"
     id="path77" /><path
     id="path83"
     d="m 565.61463,392.18562 c 1.83025,-1.26927 3.42312,-1.13806 5.62253,-1.16506 0.21412,-0.003 2.22653,0.0298 1.75952,-0.1629 -0.86426,-1.22368 -1.14814,-1.41071 -0.85069,-0.56113 -0.0388,-0.14978 0.3207,1.47492 0.2461,0.9287 0.29939,2.19051 -0.6482,0.15356 1.15687,-0.48856 -1.32643,0.47179 -2.69742,0.59278 -4.08489,0.85519 -0.0834,0.008 -0.16665,0.003 -0.24707,-0.0115 0.56585,0.52948 1.13265,1.05897 1.69848,1.58751 -0.15503,-0.53692 -0.18506,-0.65884 -0.0891,-0.36664 -0.0784,-1.00777 -0.0862,-2.00068 0.28098,-2.94797 -1.1278,1.08315 -2.2556,2.16631 -3.3834,3.24948 1.02219,-0.36757 2.63347,-0.36663 3.35337,-0.23264 -1.23826,-0.23171 -1.5144,-2.69674 -1.57543,-0.844 -0.0126,0.36941 0.77318,-0.41597 1.13457,-0.44388 -2.63153,0.19914 -4.8445,1.96624 -4.8445,4.65275 0,2.38592 2.20812,4.85188 4.8445,4.65274 4.94915,-0.37407 7.97308,-3.4635 8.47982,-8.17116 0.44666,-4.15395 -1.46014,-8.07065 -6.01784,-8.92396 -1.75661,-0.32848 -3.60237,-0.35455 -5.3774,-0.18146 -3.10726,0.30336 -5.06735,1.47306 -6.18352,4.35497 -1.43203,3.69707 -0.41081,9.34087 3.03556,11.63932 3.48805,2.32544 8.83444,1.07014 12.48525,-0.22892 4.84838,-1.7243 5.46073,-6.20583 4.66913,-10.52545 -0.83616,-4.56249 -3.87947,-6.8265 -8.58349,-7.1457 -4.20987,-0.28567 -8.90904,0.0102 -12.41839,2.44457 -2.13643,1.48143 -3.17024,4.01811 -1.73821,6.36589 1.23729,2.03047 4.48214,3.15827 6.62728,1.67034 l 0,0 z"
     inkscape:connector-curvature="0"
     style="fill:#595959" /><ellipse
     id="ellipse85"
     ry="19.180677"
     rx="18.087713"
     cy="678.83667"
     cx="-253.88629"
     transform="matrix(0.36676669,-0.93031296,0.9397897,0.34175331,0,0)"
     style="fill:#4c4136" /><path
     style="fill:#232323;fill-opacity:1;stroke:none;stroke-width:2.5;stroke-miterlimit:7.5999999;stroke-dasharray:none;stroke-opacity:1"
     inkscape:connector-curvature="0"
     d="m 428.42099,313.99287 c 5.70784,-17.6877 11.64301,-35.98707 22.78742,-50.84796 11.39094,-15.19095 27.94504,-24.32247 44.90518,-31.19872 13.6604,-5.53838 28.35976,-11.60716 43.36736,-9.44288 13.91186,2.00631 30.865,16.29618 22.1978,32.27027 -4.49311,8.28138 -13.69281,11.18087 -21.93181,13.55144 -9.43966,2.71611 -18.90628,6.33924 -26.71192,12.63034 -14.68279,11.83505 -23.14754,30.9439 -33.43762,46.62837 -7.08597,10.79982 -14.9081,21.60219 -24.87419,29.70346 -9.65843,7.85082 -21.1284,12.58235 -33.01768,15.417"
     id="path57" /><g
     id="g4645"
     transform="matrix(1.1877696,0.14739705,-0.15377488,1.14301,115.56871,-158.33569)"><path
       style="fill:#ada686"
       inkscape:connector-curvature="0"
       id="XMLID_24_"
       d="m 413.26817,309.43808 c -0.0849,0.36174 -1.87715,-0.68313 -3.82023,0.79189" /><path
       style="fill:#ada686"
       inkscape:connector-curvature="0"
       id="XMLID_31_"
       d="m 415.63397,303.8882 c -0.1096,0.3527 -1.79557,-0.94763 -3.81034,0.27029 -1.78733,1.08031 -2.64927,3.42468 -3.10331,3.12226" /><path
       style="fill:#ada686"
       inkscape:connector-curvature="0"
       id="XMLID_32_"
       d="m 406.92393,292.66239 c 0.65346,-1.56155 6.75955,-1.21216 6.70846,-0.72928 -0.028,0.26451 -1.85243,0.0536 -3.46094,1.56813 -1.42641,1.34319 -1.73707,3.15277 -2.21831,3.1264 -0.23649,-0.0131 -0.22908,-0.45157 -0.55869,-1.84502 -0.40543,-1.70987 -0.59743,-1.81618 -0.47052,-2.12023 z" /><path
       style="fill:#ada686"
       inkscape:connector-curvature="0"
       id="XMLID_33_"
       d="m 404.07689,288.0843 c 0.88418,-1.59451 7.872,0.50266 7.77229,1.03746 -0.0544,0.29335 -2.13343,-0.45487 -4.11111,0.81991 -1.75354,1.13058 -2.26527,3.10332 -2.81655,2.94017 -0.27028,-0.0807 -0.22496,-0.57766 -0.48536,-2.25457 -0.3189,-2.05843 -0.5315,-2.23314 -0.35927,-2.54297 z" /><path
       style="fill:#ada686"
       inkscape:connector-curvature="0"
       id="XMLID_30_"
       d="m 409.20897,297.70045 c 1.13058,-1.71564 8.16619,1.01767 7.99232,1.60521 -0.0956,0.3222 -2.17216,-0.62957 -4.40447,0.66829 -1.98015,1.15118 -2.76958,3.30767 -3.32498,3.09344 -0.27275,-0.10464 -0.16069,-0.65348 -0.2159,-2.52732 -0.0676,-2.29989 -0.26698,-2.5059 -0.047,-2.83962 z" /></g><path
     style="fill:#232323;fill-opacity:1;stroke:none;stroke-opacity:1"
     d="m 660.11527,232.19153 0.63747,1.65737 c -1.27017,3.80161 -4.13231,7.12865 -6.30518,10.4291 -4.63066,7.03455 -10.88669,12.90519 -15.72915,19.86269 -2.90348,4.17134 -4.92241,8.77496 -8.28974,12.85287 -5.62223,6.80981 -10.97731,12.7314 -16.63692,19.44709 -6.2912,7.46567 -13.93001,16.42532 -22.24824,21.82667 -5.17074,3.50511 -11.02441,5.38817 -17.50677,7.09034 -5.22347,2.06466 -11.41801,3.13712 -15.61688,7.63298 -4.83026,4.3156 -6.16753,10.34511 -5.03882,15.65799 1.67967,11.88622 10.5236,23.69172 23.64649,24.6089 11.86358,0.55554 22.78217,-7.71308 32.83423,-14.09177 9.13411,-5.92957 19.92247,-9.24735 30.02723,-14.18555 12.23139,-6.46665 22.4664,-16.35829 27.95192,-28.32527 11.94122,-22.94169 9.15839,-47.9712 1.25836,-68.05762 -2.09154,-4.96814 -4.18619,-7.64812 -8.78744,-16.34934 l -0.19662,-0.0564 z"
     id="path35"
     inkscape:connector-curvature="0" /><g
     id="g4623"
     transform="matrix(1.1203804,0.20333497,-0.44211741,1.2044588,595.83142,-194.63716)"><path
       style="fill:#ada686"
       inkscape:connector-curvature="0"
       id="XMLID_5_"
       d="m 128.08723,427.19171 c -0.1747,-0.32796 1.86231,-0.72267 2.35179,-3.1132" /><path
       style="fill:#ada686"
       inkscape:connector-curvature="0"
       id="XMLID_4_"
       d="m 129.9652,432.92452 c -0.14997,-0.33703 1.97521,-0.4697 2.688,-2.71436 0.63286,-1.99005 -0.26369,-4.32124 0.27688,-4.39376" /><path
       style="fill:#ada686"
       inkscape:connector-curvature="0"
       id="XMLID_3_"
       d="m 143.91364,435.62982 c 0.53727,1.60523 -4.28581,5.3653 -4.56516,4.96894 -0.15327,-0.21755 1.35801,-1.26078 1.57061,-3.45929 0.18788,-1.94968 -0.77129,-3.51617 -0.39141,-3.81364 0.18623,-0.14585 0.47052,0.1887 1.63653,1.01933 1.43052,1.01932 1.64477,0.97236 1.74943,1.28466 z" /><path
       style="fill:#ada686"
       inkscape:connector-curvature="0"
       id="XMLID_2_"
       d="m 150.46966,438.79413 c 0.38564,1.78155 -6.25278,4.80906 -6.53048,4.341 -0.15244,-0.25709 1.90517,-1.06382 2.55204,-3.3258 0.57435,-2.00652 -0.34116,-3.82681 0.18128,-4.06744 0.25628,-0.11784 0.54963,0.28678 1.85078,1.37614 1.59699,1.33741 1.87139,1.32918 1.94638,1.6761 z" /><path
       style="fill:#ada686"
       inkscape:connector-curvature="0"
       id="XMLID_1_"
       d="m 138.81698,432.3856 c 0.52491,2.10707 -6.02122,3.84908 -6.33847,3.25083 -0.17387,-0.32798 1.86396,-0.72022 2.35674,-3.10827 0.43756,-2.11777 -0.63039,-4.40199 -0.11454,-4.54126 0.25298,-0.0684 0.58177,0.46147 1.9884,2.01806 1.72635,1.91094 2.0057,1.97027 2.10788,2.38064 z" /></g><g
     id="g4585"
     transform="matrix(1.1758005,0,0,1.1292608,64.739187,-118.51377)"><g
       id="g4616"
       transform="translate(-2.1213203,-2.1213203)"><path
         d="m 420.641,540.25523 c -0.28512,0.23733 -1.0869,-1.67608 -3.52604,-1.66949"
         id="XMLID_12_"
         inkscape:connector-curvature="0"
         style="fill:#ada686" /><path
         d="m 425.87197,537.25163 c -0.29995,0.21589 -0.86194,-1.83759 -3.20384,-2.07987 -2.0774,-0.21507 -4.17786,1.13717 -4.35832,0.62215"
         id="XMLID_11_"
         inkscape:connector-curvature="0"
         style="fill:#ada686" /><path
         d="m 425.68327,523.04444 c 1.46184,-0.85288 6.12505,3.10496 5.79379,3.45931 -0.18212,0.19447 -1.51046,-1.07372 -3.70651,-0.83393 -1.9472,0.2126 -3.28543,1.47007 -3.6546,1.1586 -0.18128,-0.15245 0.089,-0.49855 0.665,-1.80959 0.70785,-1.60769 0.61803,-1.80875 0.90232,-1.97439 z"
         id="XMLID_10_"
         inkscape:connector-curvature="0"
         style="fill:#ada686" /><path
         d="m 427.44753,515.98165 c 1.66619,-0.73999 5.98002,5.14362 5.57789,5.51113 -0.22084,0.20108 -1.42888,-1.64888 -3.77573,-1.82193 -2.08069,-0.1541 -3.67767,1.11244 -4.01882,0.64934 -0.16728,-0.22744 0.16893,-0.5966 0.97154,-2.09223 0.98554,-1.83595 0.92127,-2.10293 1.24512,-2.24631 z"
         id="XMLID_9_"
         inkscape:connector-curvature="0"
         style="fill:#ada686" /><path
         d="m 423.54407,528.69485 c 1.95626,-0.94269 4.99283,5.11231 4.47204,5.54493 -0.28594,0.23732 -1.08443,-1.67856 -3.52275,-1.67526 -2.16226,0.003 -4.18115,1.5121 -4.42259,1.03581 -0.11783,-0.23403 0.33373,-0.66335 1.57143,-2.35756 1.51952,-2.07904 1.52117,-2.36499 1.90187,-2.54792 z"
         id="XMLID_7_"
         inkscape:connector-curvature="0"
         style="fill:#ada686" /></g></g><g
     id="g4578"
     transform="matrix(1.1413163,-0.27148438,0.28267294,1.0961415,295.32679,-84.898364)"><path
       style="fill:#ada686"
       inkscape:connector-curvature="0"
       id="XMLID_17_"
       d="m 134.79652,543.92776 c -0.11125,-0.35433 1.96367,-0.36752 2.88577,-2.62538" /><path
       style="fill:#ada686"
       inkscape:connector-curvature="0"
       id="XMLID_16_"
       d="m 135.58429,549.90861 c -0.0857,-0.35928 2.02795,-0.0981 3.14287,-2.17216 0.98884,-1.83925 0.53727,-4.29653 1.08278,-4.26767" /><path
       style="fill:#ada686"
       inkscape:connector-curvature="0"
       id="XMLID_15_"
       d="m 148.79439,555.1404 c 0.23238,1.67691 -5.20213,4.48274 -5.40319,4.04188 -0.11042,-0.24226 1.56731,-0.98883 2.18122,-3.11072 0.54468,-1.8821 -0.1096,-3.59774 0.3189,-3.82023 0.21013,-0.10957 0.42685,0.27276 1.41981,1.30362 1.21875,1.2649 1.43794,1.25913 1.48326,1.58545 z" /><path
       style="fill:#ada686"
       inkscape:connector-curvature="0"
       id="XMLID_14_"
       d="m 154.65493,559.45916 c 0.0503,1.82277 -7.03232,3.57301 -7.21855,3.06212 -0.10218,-0.28017 2.06833,-0.69384 3.12145,-2.79842 0.93445,-1.86562 0.36999,-3.82435 0.92868,-3.96362 0.27358,-0.0684 0.48783,0.38319 1.56485,1.69422 1.32257,1.60853 1.59368,1.65054 1.60357,2.0057 z" /><path
       style="fill:#ada686"
       inkscape:connector-curvature="0"
       id="XMLID_13_"
       d="m 144.38333,551.01117 c 0.12773,2.1672 -6.62771,2.67234 -6.82959,2.02547 -0.11042,-0.35433 1.9645,-0.36423 2.88989,-2.62043 0.82073,-2.00076 0.192,-4.44238 0.72432,-4.4844 0.26122,-0.0206 0.48701,0.56117 1.58215,2.35015 1.34482,2.1977 1.60851,2.3073 1.63323,2.72921 z" /></g></svg>
